<?xml version="1.0" encoding="utf-8"?>
<!-- Generator: Adobe Illustrator 24.3.0, SVG Export Plug-In . SVG Version: 6.00 Build 0)  -->
<svg version="1.1" id="Layer_1" xmlns="http://www.w3.org/2000/svg" xmlns:xlink="http://www.w3.org/1999/xlink" x="0px" y="0px"
	 viewBox="0 0 80 80" enable-background="new 0 0 80 80" xml:space="preserve">
<path fill="#667BBC" d="M6.266,52.449l2.667-3.667l4.167-0.5l0.5-2.667l5-0.333l1.333,3.167l4.833,0.667l1.333,1.667l4.833-3
	l5.333-0.5l0.333-4.333l7.333,0.667l0.333,4c0,0,5,0,6.667,1.333s2.333,1.667,2.333,1.667l2.5-1.5l4.667-0.667l0.667-3l4.667-0.5
	l0.5,2.833l5.833,1.833l1.333,4c0,0,0.501,1-5.666,3s-13.5-1.167-13.5-1.167s0.167,2-8.833,3.333s-19.833-3.667-19.833-3.667
	s1,2.167-6.833,2.167S6.266,52.449,6.266,52.449z"/>
<path fill="#FFCC43" d="M41.808,21.616c-4.764,0-8.625,4.533-8.625,10.125s3.861,10.125,8.625,10.125
	c4.764,0,8.625-4.533,8.625-10.125S46.571,21.616,41.808,21.616z M64.838,29.782c-3.274,0-5.928,3.115-5.928,6.958
	c0,3.843,2.654,6.958,5.928,6.958c3.273,0,5.927-3.115,5.927-6.958C70.766,32.898,68.112,29.782,64.838,29.782z M17.838,29.782
	c-3.274,0-5.928,3.115-5.928,6.958c0,3.843,2.654,6.958,5.928,6.958c3.274,0,5.927-3.115,5.927-6.958
	C23.766,32.898,21.112,29.782,17.838,29.782z"/>
<path fill="#131731" d="M76.106,53.144c-0.009-0.016-0.562-0.994-1.27-2.09c-0.762-1.118-1.455-2.253-2.486-3.004
	c-1.163-0.699-2.411-0.769-3.648-0.924c-0.267-0.026-0.524-0.047-0.764-0.063v-1.585c2.932-1.869,4.824-5.458,4.83-9.433
	c-0.009-5.781-4.007-10.747-9.397-10.789c-5.389,0.042-9.385,5.008-9.396,10.789c0.007,4.002,1.927,7.609,4.893,9.468v1.55
	c-0.24,0.017-0.498,0.037-0.764,0.063c-1.238,0.156-2.485,0.225-3.647,0.925c-0.421,0.303-0.768,0.657-1.088,1.047
	c-0.513-0.663-1.054-1.252-1.654-1.683c-1.357-0.827-3.042-0.968-4.669-1.161c-0.54-0.052-1.053-0.088-1.498-0.113v-2.918
	c3.916-2.367,6.492-7.091,6.501-12.392c-0.013-7.555-5.23-13.957-12.126-14.001c-6.896,0.044-12.113,6.446-12.126,14.001
	c0.009,5.337,2.623,10.087,6.583,12.438v2.871c-0.444,0.025-0.957,0.062-1.498,0.113c-1.627,0.193-3.312,0.334-4.667,1.161
	c-0.626,0.448-1.187,1.069-1.719,1.766c-0.336-0.421-0.692-0.804-1.149-1.129c-1.165-0.699-2.409-0.771-3.647-0.927
	c-0.266-0.025-0.523-0.045-0.763-0.062v-1.586c2.932-1.869,4.823-5.457,4.829-9.432c-0.009-5.781-4.007-10.747-9.396-10.789
	c-5.389,0.042-9.385,5.008-9.396,10.789c0.008,4.002,1.927,7.609,4.894,9.468v1.55c-0.24,0.017-0.498,0.037-0.764,0.063
	c-1.236,0.155-2.484,0.225-3.647,0.924c-1.032,0.751-1.725,1.886-2.487,3.004c-0.708,1.096-1.261,2.074-1.27,2.09l-1.022,1.81
	l2.041,0.4c1.363,0.254,2.384,0.987,4.193,1.848c1.597,0.75,3.713,1.423,6.872,1.558v0.03c0.083,0.001,0.167,0.001,0.249,0.001
	c0.215,0,0.418-0.006,0.625-0.01c0.096,0.001,0.183,0.007,0.281,0.007h0.084v-0.013c4.482-0.145,6.782-1.265,8.359-2.197
	c1.48,0.485,2.787,1.331,4.726,2.247c2.096,0.983,4.847,1.866,9.026,2.049v0.042h0.059c0.38,0,0.747-0.005,1.105-0.014
	c0.149,0.002,0.283,0.011,0.435,0.011H40.8v-0.027c4.689-0.167,7.485-1.056,9.516-2.078c1.875-0.956,2.934-1.781,4.318-2.248
	c1.707,0.91,4.065,2.022,8.15,2.193v0.037h0.077c0.21,0,0.397-0.01,0.599-0.014c0.132,0.002,0.248,0.014,0.384,0.014
	c0.06,0,0.119,0,0.18-0.001v-0.024c3.529-0.124,5.688-0.797,7.243-1.581c1.753-0.899,2.498-1.584,3.821-1.829l2.041-0.4
	L76.106,53.144z M56.977,36.046c-0.002-2.219,0.768-4.203,1.956-5.597c1.193-1.396,2.748-2.191,4.439-2.193
	c1.693,0.002,3.247,0.797,4.441,2.193c1.188,1.394,1.958,3.378,1.956,5.597c0.002,2.221-0.768,4.203-1.956,5.598
	c-1.195,1.398-2.748,2.192-4.441,2.192c-1.691,0-3.246-0.795-4.439-2.192C57.745,40.249,56.975,38.266,56.977,36.046z
	 M33.553,38.699c-1.68-1.976-2.756-4.763-2.754-7.868c-0.003-3.105,1.074-5.893,2.754-7.868c1.688-1.978,3.926-3.13,6.371-3.133
	c2.445,0.003,4.683,1.155,6.371,3.133c1.68,1.976,2.754,4.763,2.754,7.868c0,3.105-1.074,5.893-2.754,7.868
	c-1.689,1.977-3.926,3.13-6.371,3.132C37.479,41.829,35.242,40.676,33.553,38.699z M9.977,36.046
	c-0.002-2.219,0.768-4.203,1.954-5.597c1.195-1.396,2.75-2.191,4.441-2.193c1.693,0.002,3.246,0.797,4.441,2.193
	c1.186,1.394,1.958,3.378,1.956,5.597c0.002,2.221-0.77,4.203-1.956,5.598c-1.195,1.398-2.747,2.192-4.441,2.192
	c-1.691,0-3.247-0.795-4.441-2.192C10.745,40.249,9.975,38.266,9.977,36.046z M7.27,53.031c0.071-0.113,0.145-0.229,0.221-0.346
	c0.602-0.984,1.548-2.143,1.631-2.137c0-0.005,0.051-0.031,0.187-0.076c0.495-0.176,1.587-0.332,2.473-0.394
	c0.898-0.071,1.609-0.083,1.611-0.085l1.475-0.022v-3.293c0.489,0.092,0.987,0.154,1.504,0.158c0.538-0.004,1.058-0.07,1.566-0.169
	v3.303l1.476,0.024c0.003,0,0.94,0.016,2.001,0.115c0.53,0.052,1.086,0.125,1.532,0.219c0.221,0.044,0.414,0.098,0.55,0.145
	c0.136,0.042,0.185,0.078,0.187,0.076c0.024-0.019,0.576,0.574,1.029,1.238c-0.792,1.255-1.377,2.292-1.387,2.306L23.17,54.37
	c-1.324,0.708-2.961,1.313-6.742,1.406c-3.122-0.076-4.84-0.647-6.247-1.295C9.22,54.047,8.341,53.487,7.27,53.031z M48.975,56.124
	c-1.743,0.861-4.083,1.666-8.797,1.776c-4.384-0.082-6.833-0.887-8.804-1.794c-1.503-0.687-2.812-1.546-4.464-2.173
	c0.192-0.312,0.405-0.65,0.629-0.996c0.838-1.349,2.068-2.901,2.344-3.024c0.145-0.174,1.876-0.575,3.289-0.673
	c1.453-0.139,2.733-0.158,2.734-0.16l1.476-0.022v-4.543c0.816,0.201,1.665,0.312,2.542,0.317c0.908-0.006,1.784-0.128,2.626-0.342
	v4.567l1.477,0.022c0.002,0,1.281,0.021,2.732,0.16c1.415,0.098,3.146,0.499,3.291,0.673c0.274,0.123,1.504,1.676,2.342,3.024
	c0.229,0.353,0.445,0.697,0.641,1.016C51.456,54.593,50.324,55.469,48.975,56.124z M69.928,54.499
	c-1.271,0.625-2.988,1.211-6.569,1.277c-3.457-0.1-5.149-0.771-6.671-1.536l-0.083-0.146c-0.008-0.015-0.624-1.104-1.447-2.398
	c0.454-0.632,0.931-1.162,0.962-1.146c0-0.003,0.054-0.031,0.189-0.076c0.492-0.176,1.585-0.329,2.474-0.395
	c0.895-0.07,1.607-0.082,1.607-0.084l1.478-0.022v-3.292c0.488,0.091,0.986,0.153,1.502,0.157c0.539-0.004,1.059-0.07,1.568-0.17
	v3.305l1.475,0.022c0.002,0,0.94,0.016,2.003,0.118c0.528,0.051,1.085,0.125,1.531,0.216c0.22,0.047,0.414,0.098,0.55,0.145
	c0.136,0.045,0.183,0.081,0.187,0.076c0.08-0.007,1.029,1.152,1.631,2.137c0.081,0.125,0.16,0.249,0.236,0.37
	C71.542,53.524,70.775,54.091,69.928,54.499z"/>
</svg>
